<?xml version="1.0" encoding="UTF-8"?>
<!DOCTYPE svg PUBLIC "-//W3C//DTD SVG 1.1//EN" "http://www.w3.org/Graphics/SVG/1.1/DTD/svg11.dtd">
<!-- Creator: CorelDRAW X8 -->
<svg xmlns="http://www.w3.org/2000/svg" xml:space="preserve" width="166.242mm" height="131.631mm" version="1.1" style="shape-rendering:geometricPrecision; text-rendering:geometricPrecision; image-rendering:optimizeQuality; fill-rule:evenodd; clip-rule:evenodd"
viewBox="0 0 16769 13278"
 xmlns:xlink="http://www.w3.org/1999/xlink">
 <defs>
  <style type="text/css">
   <![CDATA[
    .str0 {stroke:#002776;stroke-width:504.347}
    .fil0 {fill:none}
   ]]>
  </style>
 </defs>
 <g id="Camada_x0020_1">
  <metadata id="CorelCorpID_0Corel-Layer"/>
  <path class="fil0 str0" d="M11269 3832l5122 0 -3803 9181c-2714,0 -5428,0 -8142,0 1475,117 2833,-585 3971,-2849l2852 -6332zm-6824 795c2316,0 4194,1877 4194,4193 0,2316 -1878,4193 -4194,4193 -2315,0 -4193,-1877 -4193,-4193 0,-2316 1878,-4193 4193,-4193zm-2667 957l5637 -4767 94 -73 97 -69 100 -65 104 -59 106 -55 110 -49 112 -45 115 -39 118 -33 119 -27 122 -22 124 -16 126 -10 127 -3 127 3 126 10 124 16 122 22 119 27 118 33 115 39 112 45 110 49 106 55 104 59 100 65 97 69 94 73 89 78 86 82 82 86 78 90 74 93 69 97 64 100 59 104 55 107 50 109 44 113 39 115 33 117 28 120 22 122 15 123 10 126 3 127 -3 128 -10 125 -15 124 -22 122 -28 120 -33 117 -39 115 -44 112 -2960 6763 75 -190 66 -195 57 -199 47 -203 36 -206 27 -210 16 -213 6 -216 -6 -216 -16 -213 -27 -210 -36 -206 -47 -203 -57 -199 -66 -195 -75 -190 -84 -186 -92 -181 -101 -175 -109 -170 -117 -165 -125 -158 -132 -152 -138 -146 -146 -139 -152 -132 -159 -124 -164 -117 -170 -109 -176 -101 -181 -93 -185 -84 -191 -75 -195 -66 -199 -56 -202 -47 -207 -37 -210 -27 -213 -16 -216 -5 -215 5 -213 16 -210 27 -207 37 -202 47 -199 56 -195 66 -191 75 -185 84 -181 93 -176 101 -170 109 -164 117 -159 124z"/>
 </g>
</svg>
